# xmcd CD database file
#
# Track frame offsets:
#	150
#	26575
#	47350
#	71190
#	93092
#	115510
#	142497
#	161805
#	172435
#	189515
#	212540
#	220305
#	235390
#
# Disc length: 3396 seconds
#
# Revision: 0
# Processed by: cddbd v1.5.2PL0 Copyright (c) Steve Scherf et al.
# Submitted via: CDex 1.51
#
DISCID=c30d420d
DTITLE=Joe Pass-Tommy Gumina Trio - Love Walked In
DYEAR=1992
DGENRE=Jazz
TTITLE0=What Kind Of Fool Am I
TTITLE1=Love Walked In
TTITLE2=Stella By Starlight
TTITLE3=I Will Wait For You
TTITLE4=Samba De Orfeu
TTITLE5=Memories Of You
TTITLE6=Be My Love
TTITLE7=How High The Moon
TTITLE8=Manha De Carnaval
TTITLE9=Ellens Tune
TTITLE10=Joe's Blues
TTITLE11=Here's That Rainy Day
TTITLE12=Tangerine
EXTD=YEAR: 1992
EXTT0=
EXTT1=
EXTT2=
EXTT3=
EXTT4=
EXTT5=
EXTT6=
EXTT7=
EXTT8=
EXTT9=
EXTT10=
EXTT11=
EXTT12=
PLAYORDER=
